<?xml version="1.0" encoding="UTF-8"?>
<svg id="Camada_2" data-name="Camada 2" xmlns="http://www.w3.org/2000/svg" viewBox="0 0 384 384">
  <defs>
    <style>
      .cls-1 {
      fill: #989898;
      }

      .cls-2 {
      fill: #fefefe;
      }

      .cls-3 {
      fill: #ababab;
      }

      .cls-4 {
      fill: #555;
      }

      .cls-5 {
      fill: #464646;
      }

      .cls-6 {
      fill: #8c8c8c;
      }

      .cls-7 {
      fill: #5a5a5a;
      }

      .cls-8 {
      fill: #949494;
      }

      .cls-9 {
      fill: #6e6e6e;
      }

      .cls-10 {
      fill: #2d2d2d;
      }
    </style>
  </defs>
  <g id="Camada_1-2" data-name="Camada 1">
    <g>
      <path class="cls-1"
        d="M380.26,158.69l-1.43.68-97.21-97.98c-.56-1.6-1.35-2.35-2.36-2.26.66.84.02,1.72-.51,2.43l-51.58,44.77c-6.26.88-28.79,2.05-33.51.21-.67-.26-1.31-.62-1.93-1-.74.38-1.5.74-2.29,1-5.98,1.98-25.1.62-32.49-.04l-51.46-43.96c-.52-.42.54,11.89.73,13.34l-1.27,2.72c3.63,15.84,5.08,32.42,4.49,48.65l1.33.87c-8.67,34.1-17.09,68.24-25.27,102.43,9.02,7.61,17.93,15.48,25.9,24.22l.29,2.73-2.37,3.7c-21.52,17.44-40.71,39.43-52.54,64.09l-1.95,1.07c-.76-.23-1.5-.49-2.2-.84-5.74-2.91-17.53-20.08-21.73-26.41C12.82,271.85,1.15,239.93.21,207.35c.48-9.55-.65-19.72,0-29.19-.26-27.29,8.6-53.8,21.65-77.54C51.85,46.05,108.37,5.34,171.21.84c23.74-1.7,49.05-.98,71.99,5.43,57.47,16.06,105.26,57.91,127.53,113.49,3.01,7.51,11.27,30.02,10.14,36.73-.13.75-.36,1.48-.62,2.2Z" />
      <path class="cls-5"
        d="M191.73,105.54l1.5.52v107.34c4.85-.3,9.68-.19,14.51.31l.46,1.86c-.27.51-1.09,1.33-1.55,1.45-.91.22-13,.26-13.84.05l-1.07-1.5c-5.55,1.79-10.85,1.86-15.88.21.76.24,1.47.49,2.16.93,2.81,1.79,12.61,16.55,13.72,20.57.21-.65.46-.64.75,0l.83.62c-.13,48.22-.16,96.61-.08,145.17l-1.5.92h-15.71c-32.47-1.55-64.27-12.67-92.36-31.66-6.69-4.53-25.01-17.55-28.02-23.73-.35-.71-.59-1.47-.81-2.24,1.98-6.33,6.45-13.02,10.16-18.65,12.54-19.03,28.44-36.56,46.69-50.22l-.09-1.72c2.25-1.09,4.28-2.44,6.11-4.07-8.01-5.36-16.27-10.36-24.79-15.03l-7.41-6.14c-.29-.39-1.4-.6-1.51-1.3l25.45-102,.28-1.62,36.84-10.03-39.95-33.65-1.65-3.35c-.53-6.43-1.35-13.11-1.13-19.46l53.53,46c11.43.75,22.94.4,34.38.41Z" />
      <path class="cls-10"
        d="M278.51,78.6l-1.35,3.1-40.27,34.03,36.66,9.85.48,1.68,1.58.14,25.15,99.9c.14.98-.34,1.72-1.09,2.33l-33.28,22.39c26.25,18.47,49.14,43.35,63.04,72.12l-.78,2.24c-.18.73-.39,1.45-.7,2.12-2.78,6.06-22.81,20.19-29.49,24.62-26.93,17.87-59.15,30.8-91.75,30.9h-14.96l-.03-143.4c-.19-1.27.37-2.22.78-3.32-.54-.75.07-2.63.51-3.63.72-1.65,11.5-15.52,13.19-17.15l2.01-.93c-2.15-1.88-15.71.01-16.46-.74v-109.29c11.62,0,23.46.47,34.97-.57l52.56-45.84c1.09-.68,2.31,1.1,2.35,2.19.22,5.42-1.1,12.15-3.1,17.27Z" />
      <path class="cls-6"
        d="M279.26,59.13c.11-.89.63-.86,1.48-.74l99.51,100.3c10.79,61.63-7.92,123.31-51.62,167.67-2.06-6.2-6.24-12.67-9.87-18.2-14.56-22.19-33.16-41.49-55.21-56.28l35.85-23.9-25.39-100.73c-.59-16.18.8-32.89,4.49-48.65.44-5.16.87-10.29,1.41-15.44.13-1.23.61-3.25-.67-4.02Z" />
      <path class="cls-7" d="M104.95,78.6l44.88,37.8-40.4,10.85c-1.76-16.17-3.16-32.44-4.49-48.65Z" />
      <path class="cls-6"
        d="M111.68,257.5c-7.37-9.48-19.16-17.47-26.18-26.95,4.35,2.94,32.93,18.51,34.06,20.95.7,1.52-6.63,5.06-7.88,5.99Z" />
      <path class="cls-3"
        d="M133.34,166.21c-.98,8.88,4.87,16.66,10.99,22.37,2.52.44,12.66-14.27,11.51-17.9l14.88,2.29c.19,9.1-9.29,18.32-17.48,20.94-19.46,6.22-37.67-10.05-34.82-29.98l14.92,2.28Z" />
      <path class="cls-9"
        d="M191.73,215.58c.59.07,1.46.26,1.5.68.57,6.11.54,15.53-1.5,21.03l-16.46-21.7c5.48-.01,10.98,0,16.46,0Z" />
      <path class="cls-4" d="M208.19,215.58c1.08.79-14.53,18.55-15.71,21.71h-.75v-21.71h16.46Z" />
      <path class="cls-5"
        d="M274.02,127.25l-40.4-10.85,44.88-37.8c-1.37,16.21-2.69,32.49-4.49,48.65Z" />
      <path class="cls-8"
        d="M265.04,163.93c2.85,19.92-15.36,36.2-34.82,29.98-8.24-2.63-17.62-11.84-17.52-20.98l14.93-2.25c-1.15,3.63,8.99,18.34,11.51,17.9,6.1-5.71,12.03-13.52,10.96-22.4l14.95-2.25Z" />
    </g>
  </g>
</svg>